<?xml version="1.0" encoding="utf-8"?>
<!-- Generator: Adobe Illustrator 24.0.0, SVG Export Plug-In . SVG Version: 6.00 Build 0)  -->
<svg version="1.1" id="Layer_1" xmlns="http://www.w3.org/2000/svg" xmlns:xlink="http://www.w3.org/1999/xlink" x="0px" y="0px"
	 viewBox="0 0 148.72 45.58" style="enable-background:new 0 0 148.72 45.58;" xml:space="preserve">
<style type="text/css">
	.st0{fill:#FFFFFF;}
</style>
<g>
	<path class="st0" d="M147.34,26.94c-0.47-2.34-0.37-2.57,0.52-3.98c2.32-3.67-0.37-8.12-4.29-11.66c-0.99-0.9-1.93-1.59-2.85-2.2
		c-1.7-1.13-3.45-2.15-4.86-2.73c-1.32-0.62-2.44-1.12-3.57-1.55c-0.55-0.21-1.23-0.51-0.87,0.31c0.31,0.7,1.02,1.17,1.56,1.5
		c1.36,0.84,2.23,1.9,2.76,3.33c1.95,5.29,2.2,11.54,1.1,17.57c-0.04,0.22-0.25,0.36-0.47,0.32c-2.27-0.44-4.48-0.91-6.66-1.38
		c-5.62-1.22-11.36-2.46-17.99-2.9c-0.23-0.02-0.4-0.23-0.36-0.46c0.17-0.93,0.32-1.85,0.44-2.78c0.14-1.07,0.68-1.7,1.62-1.68
		c2.94,0.04,6.09-0.15,7.43,3.55c0.05,0.15,0.37,0.15,0.76,0.29c1.56-2.68,0.96-5.63,0.41-8.56c-0.03-0.15-0.15-0.7-0.15-0.7
		s-0.31,0.38-0.42,0.5c-1.86,1.96-4.48,2.04-7.16,1.68c-1.34-0.18-2.12-0.93-2.14-2.62c-0.02-1.26-0.13-2.52-0.48-3.72
		c-2.31-8-0.78-6.51,4.24-6.03c2.37,0.23,4.58,0.87,6.09,3.79c0.16,0.31,0.52,0.61,0.81,0.87c0.49,0.44,0.89,0.35,1.03,0
		c0.47-1.2-0.15-2.69-1.03-4.1c-0.74-1.18-1.77-1.45-2.81-1.79c-5.82-1.92-11.94-1.81-16.23-1.75c-0.24,0-0.46,0.08-0.68,0.14
		c-0.31,0.09-0.51,0.35-0.45,0.76c0.09,0.62,0.54,1.03,1.02,1.19c1.4,0.46,2.49,1.32,2.95,3.31c1.24,5.46,1.12,11.62-0.1,17.66
		c-0.04,0.18-0.2,0.31-0.38,0.32c-1.61,0.01-3.28,0.07-5.01,0.2c-0.79,0.06-1.59,0.13-2.41,0.24c-0.66,0.09-0.66,0.09-0.4-0.54
		c1.24-2.98,1.77-6.05,1.28-9.17C98.36,6.24,92.73,3.44,86.77,2.85c-3.21-0.32-5.65,1.34-8.58,1.88c-1.07,0.2-2.06,0.58-3.07,0.93
		c-0.33,0.11-0.66,0.34-0.45,0.89c0.11,0.29,0.38,0.73,0.58,0.79c2.12,0.67,2.79,2.73,3.22,4.9c0.99,4.94,0.99,10.26,0.21,15.52
		c-0.02,0.16-0.14,0.29-0.3,0.33c-5.79,1.41-12.17,2.89-18.63,3.97c-0.26,0.04-0.25-0.08-0.2-0.47c0.06-0.54,0.1-1.07,0.13-1.61
		c0.07-1.04,0.45-1.73,1.16-1.91c2.21-0.55,4.62-1.6,5.75,1.48c0.05,0.12,0.29,0.03,0.59,0.04c1.07-2.87,0.57-5.43,0.03-8.07
		C67.17,21.33,67,20.73,67,20.73s-0.31,0.52-0.4,0.68c-1.34,2.41-3.29,3.14-5.25,3.36c-0.99,0.11-1.6-0.44-1.73-2.01
		c-0.11-1.35-0.29-2.71-0.66-3.98c-2.16-7.4-1.09-6.19,2.74-7.23c1.83-0.5,3.67-0.59,5.07,2.1c0.15,0.28,0.45,0.48,0.7,0.64
		c0.42,0.28,0.74,0.02,0.84-0.44c0.33-1.57-0.25-3.07-1.06-4.43c-0.68-1.14-1.56-0.99-2.44-0.95c-4.89,0.2-9.12,1.78-13.52,2.44
		c-0.25,0.04-0.47,0.15-0.69,0.24c-0.32,0.13-0.51,0.43-0.44,0.87c0.1,0.66,0.57,1.04,1.06,1.15c1.44,0.33,2.55,1.08,3.08,3.06
		c1.35,5.14,1.66,10.66,1.12,16.18c-0.02,0.18-0.16,0.33-0.34,0.36c-3.44,0.45-7.12,0.77-10.74,0.92c-0.25,0.01-0.31-0.07-0.26-0.44
		c0.74-5.18,1.05-10.35,0.17-15.22c-0.25-1.37-0.63-2.67,0.43-3.33c0.41-0.25,0.84-0.64,0.43-1.41c-0.44-0.82-1.19-1.07-1.76-1.05
		c-1.41,0.04-3.56,0.23-5.58,0.37c-0.72,0.05-1.52,0.17-1.52,0.85c0,0.82,0.94,0.95,1.63,1.14c1.46,0.42,2.53,1.12,2.9,2.53
		c1.35,5.17,1.73,10.75,0.8,16.33c-0.03,0.19-0.2,0.33-0.39,0.33c-1.95,0.02-3.93-0.01-5.93-0.11c-3.61-0.23-6.7-0.44-9.4-0.64
		c-0.2-0.01-0.36-0.19-0.36-0.39c-0.02-2.24,0.03-4.47,0.13-6.7c0.09-2.19-0.03-4.38-0.57-6.5c-0.6-2.32-1.07-4.18,1.9-4.78
		c-0.66-0.56-0.86-0.8-1.03-0.84c-3.56-0.85-6.52-0.43-9.29-0.27c-0.21,0.01-0.36,0.28-0.36,0.5c-0.01,0.39,0.38,0.76,0.79,0.89
		c2.73,0.88,3.52,2.86,3.98,5.03c0.86,3.98,1.04,8.27,0.56,12.46c-0.02,0.21-0.2,0.27-0.41,0.25c-6.51-0.54-10.46-1.02-14.78-1.65
		c-0.21-0.03-0.35-0.22-0.33-0.43c0.37-3.58,0.18-7.13-0.71-10.54c-0.5-1.93-1.3-3.64-0.23-4.67c0.4-0.39-0.25-1.35-0.92-1.4
		c-1.91-0.13-3.36-0.02-4.16,0.66c-0.06,0.05,0.01,0.35,0.02,0.52c0.12,0.17,0.23,0.4,0.3,0.45c1.2,0.72,2.15,2.37,2.65,4.45
		c1.04,4.37,1.07,8.93,0.16,13.52c-0.41,2.07-0.99,4.28-2.58,5.18c-0.09,0.05-0.28,0.44-0.39,0.68c-0.14,0.33-0.05,0.44,0.05,0.5
		c0.09,0.07,0.21,0.1,0.35,0.09c2.65-0.19,6.43,0.31,10.99,1.09c0.79,0.14,1.51-0.13,2.11-1.06c0.52-0.79,1.07-1.55,1.55-2.35
		c0.38-0.64,0.73-1.46,0.24-1.94c-0.62-0.59-1.09,0.28-1.48,0.8c-1.2,1.6-2.68,2.23-4.12,2.14c-1.13-0.07-2.2-0.19-3.14-0.41
		c-1.82-0.44-1.83-1.17-1.26-3.93c0.07-0.35,0.13-0.69,0.19-1.04c0.04-0.21,0.23-0.35,0.44-0.32c4.36,0.64,8.34,1.12,14.9,1.66
		c0.21,0.02,0.37,0.2,0.36,0.4c-0.07,2.97,0.64,5.42,2.75,7.48c1.63,1.6,3.81,1.98,6.17,2.32c5.01,0.72,11.54-2.51,13.27-8.86
		c0.04-0.16,0.19-0.28,0.36-0.29c3.66-0.13,7.23-0.44,10.71-0.88c0.26-0.03,0.51-0.07,0.48,0.19c-0.24,1.59-0.58,3.44-0.96,5
		c-0.33,1.38-0.97,2.36-2.09,2.9c-0.29,0.14-0.58,0.34-0.87,0.55c-0.48,0.36-1.03,0.77-1.07,1.44c-0.04,0.63,0.48,0.6,0.9,0.64
		c0.08,0.01,0.17,0.01,0.26,0.01c4.97-0.33,9.55-1.22,13.93-2.33c1.07-0.27,2.08-1.1,2.99-2.76c0.67-1.2,1.35-2.41,1.9-3.66
		c0.32-0.72,0.62-1.65,0.11-1.82c-0.51-0.18-0.95,0.69-1.35,1.39c-0.81,1.4-1.61,3.03-2.78,3.63c-2.34,1.22-4.67,2.12-6.8,2
		c-0.92-0.05-1.48-0.63-1.07-2.33c0.42-1.74,0.75-3.5,1.01-5.27c0.02-0.17,0.15-0.3,0.32-0.32c6.38-1.04,12.42-2.47,18.16-3.81
		c0.59-0.14,0.53,0.18,0.48,0.46c-0.14,0.7-0.3,1.4-0.47,2.09c-0.55,2.26-1.27,4.16-3.17,5.38c-0.51,0.33-1.13,1.13-1.29,1.89
		c-0.14,0.72,0.28,0.77,0.74,0.64c1.52-0.43,3.05-0.92,4.59-1.38c0,0.01-0.01,0.02-0.01,0.03c0.84-0.25,1.7-0.52,2.53-0.73
		c4.08-1.01,8.86-3.76,13.51-9.43c0.8-0.98,1.52-1.98,2.15-3c0.06-0.1,0.16-0.16,0.27-0.18c1.45-0.21,2.87-0.38,4.23-0.48
		c1.45-0.11,2.85-0.16,4.21-0.19c0.26,0,0.45,0.24,0.39,0.5c-0.35,1.36-0.76,2.7-1.22,4.02c-0.49,1.4-1.42,2.33-2.58,2.81
		c-0.3,0.12-0.61,0.31-0.92,0.51c-0.51,0.34-1.09,0.74-1.23,1.42c-0.13,0.63,0.37,0.61,0.76,0.68c0.08,0.01,0.16,0.02,0.25,0.03
		c4.88,0.01,11.98,0.5,17.98,1.13c1.46,0.15,2.81-0.32,3.99-1.74c0.86-1.03,1.74-2.05,2.44-3.16c0.4-0.63,0.79-1.51,0.12-1.95
		c-0.67-0.44-1.24,0.3-1.77,0.88c-1.06,1.16-2.11,2.59-3.68,2.76c-3.15,0.34-6.32,0.48-9.11-0.25c-1.21-0.31-1.92-1.05-1.34-2.77
		c0.49-1.47,0.91-2.96,1.27-4.47c0.04-0.19,0.22-0.31,0.41-0.3c6.54,0.4,12.2,1.62,18.08,2.89c2.17,0.47,4.37,0.94,6.64,1.38
		c0.22,0.04,0.37,0.26,0.31,0.48c-0.18,0.69-0.37,1.38-0.58,2.06c-0.47,1.5-1.32,2.66-2.78,2.92c-0.78,0.14-1.51,0.31-1.79,1.35
		c-0.25,0.92,0.23,1.3,0.91,1.4c2.5,0.36,4.82,0.66,6.87,0.87c0.28,0.03,0.64-0.01,0.99-0.43c0.37-0.45,0.36-0.87,0.18-1.05
		c-1.25-1.19-0.6-3.33,0.02-5.7c0.1-0.37,0.16-0.76,0.22-1.14c1.46,0.23,2.97,0.43,4.52,0.59c0.18,0.02,0.33,0.16,0.35,0.34
		c0.27,2.05,0.36,3.95,0.42,5.49c0.07,1.75,0.44,2.3,1.21,1.95c0.26-0.12,0.39-0.05,0.94-0.91c0.44-0.7,0.46-0.97,0.45-1.25
		c-0.02-0.67-0.19-1.5-0.15-2.93C148.08,31.78,147.84,29.44,147.34,26.94z M31.21,42.37c-0.53,0-1.06-0.06-1.56-0.15
		c-2.59-0.46-3.92-2.4-4.06-5.12c-0.03-0.55-0.06-1.1-0.06-1.65c-0.01-0.43-0.01-0.43,0.41-0.4c2.66,0.16,5.67,0.4,9.18,0.62
		c1.69,0.08,3.35,0.12,5,0.12c0.3,0,0.6-0.01,0.9-0.02C39.57,40.52,36.21,42.39,31.21,42.37z M93.08,26.79
		c-1.6,3.21-3.75,5.63-6.17,6.77c-1.03,0.49-2.2,1.47-3.17,1.85c-3.5,1.37-3.63,0.72-2.57-3.8c0.16-0.67,0.31-1.36,0.45-2.04
		c0.03-0.15,0.15-0.27,0.3-0.3c3.97-0.97,7.67-1.84,11.13-2.51C93.07,26.78,93.07,26.77,93.08,26.79z M95.14,21.49
		c-0.21,0.94-0.54,1.89-0.93,2.83c-0.05,0.12-0.16,0.21-0.29,0.24c-3.5,0.64-7.22,1.56-11.24,2.47c-0.59,0.14-0.53-0.17-0.48-0.44
		c0.36-2.12,0.62-4.26,0.7-6.37c0.01,0,0.01,0,0.02-0.01c0.13-3.54-0.22-7-0.84-10.3c-0.62-3.31-0.45-3.9,2.06-4.29
		C92.31,4.32,97.28,11.88,95.14,21.49z M140.9,28.63c-0.21-0.03-0.34-0.22-0.32-0.43c0.15-1.59-0.12-3.47,1.18-4.15
		c1.03-0.54,1.85,0.56,2.6,3.37c0.11,0.39,0.2,0.79,0.28,1.18c0.06,0.26-0.17,0.51-0.44,0.48C143.08,28.95,141.98,28.79,140.9,28.63
		z M143.72,21.67c-0.27-0.04-0.55-0.11-0.84-0.17c-1.49-0.4-1.48-0.53-1.81-3.21c-0.31-2.53-0.99-5.02-2.03-7.34
		c-0.71-1.58-0.59-1.59,0.54-1.12c0.33,0.14,0.67,0.3,1.01,0.48c3.03,1.59,4.03,2.48,5.38,6.44
		C147.03,19.88,145.93,21.97,143.72,21.67z"/>
</g>
</svg>
